<?xml version="1.0" encoding="utf-8"?>
<!-- Generator: Adobe Illustrator 26.0.3, SVG Export Plug-In . SVG Version: 6.00 Build 0)  -->
<svg version="1.1" id="Layer_1" xmlns="http://www.w3.org/2000/svg" xmlns:xlink="http://www.w3.org/1999/xlink" x="0px" y="0px"
	 viewBox="0 0 212.1 95.2" style="enable-background:new 0 0 212.1 95.2;" xml:space="preserve">
<style type="text/css">
	.st0{fill:#FFFFFF;}
	.st1{clip-path:url(#SVGID_00000107567133322572305240000007895990743224424837_);}
	.st2{fill:#ED1C24;}
	.st3{opacity:0.6;fill:#F1E10A;enable-background:new    ;}
	.st4{opacity:0.6;fill:#F3E235;enable-background:new    ;}
	.st5{fill:#EAC076;}
	.st6{fill:#E7F6FD;}
	.st7{fill:#626467;}
	.st8{fill:url(#SVGID_00000154388111005446756930000002816962386869255327_);}
	.st9{fill:#3A3C3F;}
	.st10{opacity:0.9;}
	.st11{fill:#B3B5B8;}
	.st12{fill:url(#SVGID_00000013890221189921712470000016049507410890819718_);}
	.st13{fill:#008ED0;}
	.st14{fill:#083879;}
	.st15{fill:#C2C4C6;}
	.st16{fill:url(#SVGID_00000003068862413374017580000014420435138687204792_);}
	.st17{fill:#A10018;}
	.st18{fill:#ECB020;}
	.st19{opacity:0.7;}
	.st20{fill:#C9E9EB;}
	.st21{fill:url(#SVGID_00000152259252935158146630000004221930914329575605_);}
	.st22{fill:url(#SVGID_00000015322696175923811220000002509342011889102234_);}
	.st23{fill:url(#SVGID_00000004520219237297209960000016151539334355024059_);}
	.st24{opacity:0.25;}
	.st25{fill:#DEDFE0;}
	.st26{opacity:0.5;fill:#FFF2BB;enable-background:new    ;}
</style>
<path class="st0" d="M4.5,79.1c-0.5,0-1.1-0.1-1.6-0.3c-0.5-0.2-0.9-0.6-1.3-1.2C1.2,77,1,76,1,74.7c0-0.9,0.1-2,0.2-3.3
	c0.2-1.4,0.3-2.7,0.5-4c0.3-2.2,0.6-4.5,0.9-7.1c0.3-2.6,0.5-5.1,0.5-7.7c0-0.9,0-1.9-0.1-2.8c0-1-0.1-1.9-0.3-2.8
	c-0.3,0.1-0.6,0.3-0.9,0.4c-0.3,0.1-0.6,0.1-0.8,0.1c-0.4,0-0.7-0.2-0.9-0.6c-0.1-0.5-0.2-1-0.2-1.6c0-1.4,0.3-2.5,1-3.3
	c0.7-0.9,1.7-1.6,3-2.3c1.8-1,3.6-1.7,5.6-2.1c2-0.5,3.9-0.7,5.7-0.7c2.7,0,5,0.5,7.1,1.4s3.7,2.3,4.8,4c1.2,1.7,1.7,3.8,1.7,6.2
	c0,2.5-0.6,4.7-1.8,6.6c-1.2,1.9-2.7,3.5-4.5,4.8c-1.8,1.2-3.7,2-5.6,2.4c0.7,1.1,1.4,2.2,2.2,3.2c0.8,1.1,1.6,2,2.5,2.9
	c2.5,2.5,4.9,3.8,7.5,3.8c0.7,0,1.3,0,1.8-0.1c0.3,0,0.5,0.1,0.6,0.3c0.2,0.2,0.3,0.7,0.3,1.4c0,0.8-0.2,1.7-0.5,2.5
	c-0.3,0.8-0.9,1.5-1.7,2.1c-0.8,0.6-1.9,0.8-3.4,0.8c-1.7,0-3.3-0.6-4.8-1.7c-1.5-1.1-2.9-2.5-4.2-4.3c-1.3-1.8-2.5-3.6-3.5-5.6
	c-1-1.9-1.8-3.7-2.5-5.4c-0.2-0.5-0.3-0.9-0.5-1.4c-0.1-0.5-0.2-0.9-0.2-1.4c0-0.7,0.2-1.3,0.7-1.8c0.3-0.3,0.8-0.6,1.4-0.7
	c0.6-0.1,1.6-0.2,2.8-0.2c2.3,0,4.1-0.6,5.6-1.9c1.4-1.2,2.1-2.9,2.1-4.8c0-2.2-0.8-3.7-2.5-4.7c-1.6-1-3.5-1.5-5.9-1.5
	c-1.9,0-3.9,0.3-5.9,0.9c-0.1,2.8-0.4,6-0.9,9.6c-0.3,2.2-0.5,4.3-0.7,6.4c-0.2,2.1-0.3,4-0.3,5.7c0,1.5,0.1,2.8,0.4,4
	c0.3,1.1,0.9,2.1,1.7,2.9c0.6,0.6,0.9,1.2,0.9,1.9c0,0.9-0.5,1.8-1.6,2.6C7.6,78.7,6.2,79.1,4.5,79.1z M42.7,79.3
	c-2.6,0-4.7-0.8-6.3-2.4c-1.5-1.6-2.3-4-2.3-7c0-2.2,0.4-4.3,1.2-6.4c0.9-2.2,2.1-4.1,3.7-5.8c1.6-1.7,3.5-3.1,5.7-4.1
	c2.2-1,4.8-1.5,7.6-1.5c2.6,0,4.8,0.5,6.6,1.4c1.9,0.9,2.8,2,2.8,3.5c0,0.4,0,0.9-0.1,1.5c-0.1,0.6-0.2,1.1-0.3,1.5
	c-0.1,0.3-0.3,0.7-0.6,1c-0.2,0.3-0.5,0.4-0.9,0.4c-0.2,0-0.5-0.1-1-0.2c-0.2,0.9-0.3,1.8-0.4,2.6c-0.1,0.9-0.1,1.7-0.1,2.6
	c0,1.6,0.2,3.1,0.7,4.4c0.5,1.2,1.5,2,3,2.3c0.4,0.1,0.7,0.2,0.9,0.4c0.3,0.2,0.4,0.5,0.4,1.1c0,0.5-0.1,1.1-0.4,1.8
	c-0.2,0.7-0.7,1.4-1.4,2c-0.6,0.6-1.6,0.8-2.8,0.8c-1.7,0-3-0.6-3.9-1.8c-0.9-1.2-1.4-3-1.4-5.3c-1.2,2.1-2.6,3.8-4.5,5.2
	C47.2,78.7,45.1,79.3,42.7,79.3z M44.7,72.6c1.7,0,3.2-0.5,4.5-1.6c1.3-1.1,2.4-2.4,3.1-4.1c0.5-1,0.8-2.2,1.1-3.4
	c0.3-1.2,0.4-2.5,0.5-3.7c-0.7-0.3-1.6-0.6-2.5-0.8c-0.9-0.2-1.9-0.3-3-0.3c-2.6,0-4.8,0.8-6.5,2.3c-1.7,1.5-2.5,3.5-2.5,5.8
	c0,1.7,0.5,3.1,1.4,4.2C41.8,72.1,43.1,72.6,44.7,72.6z M70.8,79.2c-1.5,0-2.2-0.5-2.1-1.5c0.5-1.9,0.9-3.7,1.2-5.6
	c0.3-1.9,0.5-3.8,0.5-5.6c0-2.3-0.2-3.9-0.5-5c-0.3-1.1-0.6-1.8-1.1-2.2c-0.5-0.4-1.1-0.8-1.7-1c-0.3-0.1-0.6-0.3-0.8-0.5
	c-0.2-0.2-0.3-0.5-0.3-0.9c0-0.6,0.2-1.3,0.7-2c0.5-0.7,1.1-1.4,2-1.9c0.9-0.6,1.9-0.8,3-0.8c1.5,0,2.5,0.5,3,1.5
	c0.6,1,0.8,2.3,0.8,3.9c0,1.1-0.1,2.3-0.3,3.6c-0.2,1.3-0.4,2.5-0.6,3.6l0.2,0.1c0.9-2.3,1.9-4.4,3.1-6.3c1.2-2,2.7-3.6,4.3-4.8
	c1.6-1.2,3.5-1.8,5.7-1.8c2.3,0,4,0.7,5.2,2.1c1.2,1.4,1.8,3.1,1.8,5.2c0,0.9-0.1,1.7-0.3,2.5c-0.2,0.8-0.4,1.5-0.6,2.3
	c-0.2,0.7-0.4,1.4-0.6,2.1c-0.1,0.7-0.2,1.5-0.2,2.2c0,2.5,1.2,4.1,3.5,5c0.6,0.3,0.9,0.6,0.9,1.2c0,0.4-0.1,0.9-0.4,1.7
	c-0.3,0.7-0.7,1.4-1.4,2.1c-0.7,0.6-1.7,0.9-3,0.9c-1.7,0-3.1-0.6-4-1.8c-0.9-1.2-1.4-2.8-1.4-4.7c0-1.1,0.1-2.2,0.3-3.2
	c0.3-1.1,0.5-2.2,0.8-3.1c0.2-0.7,0.3-1.4,0.5-2.1c0.2-0.7,0.3-1.4,0.3-1.9c0-2-1-3-3.1-3c-1.8,0-3.3,0.7-4.6,2
	c-1.3,1.3-2.5,2.9-3.4,4.9c-0.9,2-1.7,4-2.3,6v1.5c0,1.6-0.5,2.9-1.4,3.9C73.5,78.7,72.3,79.2,70.8,79.2z M104.2,79.2
	c-0.5,0-0.9-0.2-1.4-0.5c-0.4-0.3-0.6-0.6-0.5-1.1c0.6-3.4,1.2-6.9,1.6-10.5c0.5-3.6,0.7-7.2,0.7-10.8c0-3.2-0.1-6.1-0.3-8.6
	c-0.2-2.6-0.9-5.1-2.1-7.4c-0.2-0.5-0.4-0.9-0.5-1.2c-0.1-0.3-0.2-0.7-0.2-1c0-0.8,0.5-1.6,1.4-2.4c0.9-0.8,2-1.2,3-1.2
	c1.5,0,2.6,0.9,3.2,2.8c0.6,1.9,0.8,4.7,0.8,8.4c0,4.4-0.3,8.3-0.8,11.6c-0.5,3.3-1,5.8-1.4,7.5l0.3,0.1c0.9-2.1,2-4.1,3.3-6.1
	c1.3-2,2.9-3.6,4.6-4.9c1.8-1.3,3.7-1.9,5.7-1.9c2,0,3.6,0.6,4.6,1.8c1.1,1.2,1.7,2.6,1.7,4.3c0,2-0.7,3.7-2.1,5.3
	c-1.4,1.5-3.3,2.8-5.6,3.9c0.6,1.5,1.4,2.6,2.4,3.5c1,0.8,2.3,1.2,3.9,1.2c0.5,0,0.9,0,1.3-0.1c0.6-0.1,0.8,0.4,0.8,1.6
	c0,0.7-0.1,1.5-0.4,2.3c-0.3,0.9-0.8,1.6-1.5,2.3c-0.7,0.6-1.9,0.9-3.4,0.9c-2,0-3.7-0.6-5-1.7c-1.2-1.2-2.2-2.7-3-4.4
	c-0.7-1.8-1.2-3.5-1.6-5.2c-0.3-1.6,0.2-2.4,1.6-2.5c1.5-0.2,2.8-0.6,3.8-1.4c1-0.7,1.5-1.7,1.5-2.9c0-1.4-0.7-2.1-2-2.1
	c-0.9,0-1.7,0.3-2.6,1c-0.9,0.6-1.7,1.3-2.5,2.2c-0.7,0.9-1.3,1.7-1.8,2.5c-0.6,1.1-1.2,2.2-1.7,3.3c-0.5,1.1-0.9,2.2-1.2,3.2v2.6
	c0,1.6-0.5,2.9-1.4,3.9C106.9,78.7,105.7,79.2,104.2,79.2z"/>
<path class="st0" d="M190.3,79.3c-2.6,0-4.6-0.9-6.1-2.6c-1.5-1.7-2.2-4.1-2.2-7c0-2.2,0.3-4.3,1-6.5c0.7-2.1,1.7-4,3-5.7
	s2.8-3,4.5-4c1.7-1,3.6-1.5,5.6-1.5c1.3,0,2.4,0.2,3.4,0.6c1,0.4,1.9,0.9,2.7,1.5c0-2.9-0.2-5.6-0.5-7.9s-0.9-4.5-1.9-6.5
	c-0.2-0.3-0.3-0.6-0.5-0.9c-0.1-0.3-0.1-0.6-0.1-0.8c0-0.6,0.2-1.2,0.7-1.7c0.5-0.5,1.1-0.9,1.9-1.3c0.7-0.3,1.4-0.5,2.1-0.5
	c1.2,0,2,0.5,2.6,1.5c0.6,1,1,2.4,1.2,4.1C208,42,208,44,208,46.2c0,3.3-0.2,6.2-0.5,8.8c-0.3,2.6-0.6,4.9-0.8,6.9
	c-0.2,1.3-0.3,2.4-0.5,3.4s-0.2,1.7-0.2,2.3c0,3.1,1.3,4.9,3.9,5.4c0.7,0.1,1,0.6,1,1.4c0,0.5-0.2,1.1-0.5,1.8
	c-0.3,0.7-0.8,1.4-1.5,2c-0.7,0.6-1.8,0.8-3.2,0.8c-1.8,0-3.1-0.6-3.7-1.9c-0.6-1.2-1-3.1-1-5.7c-1.2,2.2-2.7,4-4.6,5.6
	C194.8,78.6,192.7,79.3,190.3,79.3z M192.3,72.4c1.2,0,2.4-0.4,3.6-1.2c1.2-0.8,2.3-1.8,3.2-3.2c0.6-0.8,1.1-1.7,1.5-2.8
	c0.5-1.1,0.9-2.2,1.3-3.2c-2.2-2-4.6-3-7.3-3c-2.3,0-4.2,0.7-5.6,2.1c-1.4,1.4-2.1,3.1-2.1,5.2c0,1.8,0.5,3.2,1.5,4.3
	C189.6,71.9,190.8,72.4,192.3,72.4z"/>
<g>
	<defs>
		
			<rect id="SVGID_1_" x="119.4" y="23.3" transform="matrix(0.8036 -0.5951 0.5951 0.8036 -8.505972e-02 101.28)" width="68.1" height="55"/>
	</defs>
	<clipPath id="SVGID_00000032640829716101378180000014075776988482651816_">
		<use xlink:href="#SVGID_1_"  style="overflow:visible;"/>
	</clipPath>
	<g style="clip-path:url(#SVGID_00000032640829716101378180000014075776988482651816_);">
		<path class="st2" d="M143.9,89.1c0.1-0.2,0.1-0.4,0.2-0.7c0.1-0.4,0.3-0.8,0.5-1.2c0.2-0.7,1.4-4.1,1.8-5.1c0.4-1.3,0.9-2.6,1.4-4
			c0.2-0.6,1.2-3.1,1.2-3.1c-0.2,1-0.4,2-0.7,3l0.2-0.4c1.1-2.6,1.7-5.5,2.7-8.2c0,0-0.2,1.3-0.4,2c0.2-0.5,0.4-1,0.6-1.6
			c0.2-0.5,0.6-1.6,0.6-1.5c-0.3,1-0.6,2-0.8,3c0.3-0.8,0.6-1.6,1-2.5c0.6-1.6,1.2-3.1,1.8-4.6c0.5-1.3,0.9-2.6,1.1-4
			c0.1-0.6,0.1-1.2-0.1-1.7c-0.1-0.6-0.4-1.1-0.8-1.6c-1.8-2.1-5.4-1.4-6.9,1.7c-0.6,1.5-1.1,3-1.3,4.6c-0.2,1-0.4,3.4-0.4,4.4
			l-0.1,1.2c-0.1,1.3-0.2,2.5-0.1,3.8c0.2-1.3,0.6-3.9,0.6-3.9c0,0.6,0,1.1-0.1,1.7c-0.1,0.6-0.1,1.3-0.1,1.9c0,0.7,0,1.2-0.1,1.8
			c-0.1,0.6-0.1,1.1-0.1,1.6c0.4-1.4,1.2-5,1.2-5c0,0.3-0.1,0.6-0.1,0.9c-0.2,1-0.3,2.1-0.5,3.1c-0.2,1.3-0.3,2.6-0.5,3.9
			c-0.3,1.9-0.5,3.9-0.8,5.8c0.4-1.9,1.3-5.7,1.3-5.6c-0.4,2.3-0.7,4.6-1.2,6.9C144.4,86.8,144.1,88,143.9,89.1z"/>
		<path class="st3" d="M151.6,56.4c0.5,0,1,0.2,1.4,0.4c0.4,0.3,0.7,0.7,0.9,1.1c0.3,0.7,0.4,1.4,0.4,2.1c0,0.4,0,0.8-0.1,1.1
			c0,0.3-0.1,0.6-0.2,0.9c0.1-0.3,0.2-0.7,0.2-1c0.1-0.4,0.1-0.7,0.1-1.1c0-0.7-0.1-1.4-0.4-2.1c-0.2-0.5-0.5-0.9-1-1.1
			C152.6,56.5,152.1,56.3,151.6,56.4C151.6,56.4,151.6,56.4,151.6,56.4z"/>
		<path class="st3" d="M148.4,57.6c-0.2,0.2-0.3,0.5-0.5,0.7c-0.7,1-1.1,2.1-1.5,3.3c0.3-1.1,0.9-2.1,1.5-3.1c0.3-0.4,0.6-0.9,1-1.2
			l0.6-0.5C149.1,56.9,148.7,57.2,148.4,57.6z"/>
		<path class="st3" d="M154.2,65.5c0.2-0.4,0.4-0.8,0.6-1.2c0.2-0.4,0.3-0.8,0.5-1.3c0.3-0.9,0.4-1.7,0.5-2.6c0.1-0.8,0-1.7-0.2-2.5
			c-0.2-0.7-0.6-1.3-1.1-1.8l0,0c0.9,1,1.2,2.8,1.1,4.4c-0.1,0.9-0.2,1.7-0.4,2.5C154.8,63.9,154.5,64.7,154.2,65.5
			C154.2,65.5,154.2,65.5,154.2,65.5z"/>
		<path class="st3" d="M150.2,55.5c0.4-0.1,0.7-0.1,1.1-0.1c0.3,0,0.6,0,0.9,0c0.1,0,0.2,0.1,0.4,0.1c0.2,0,0.5,0.1,0.7,0.2
			c0.1,0.1,0.3,0.2,0.4,0.3c-0.3-0.4-0.8-0.8-1.3-1c-0.6-0.2-1.2-0.1-1.8,0c-0.7,0.2-1.3,0.6-1.8,1.1c-0.1,0.1-0.3,0.2-0.4,0.4
			C148.8,56,149.5,55.6,150.2,55.5z"/>
		<path class="st3" d="M145.3,63.2c0-0.2,0.1-0.4,0.1-0.7c0.1-0.2,0.1-0.5,0.2-0.8c0.1-0.5,0.3-1,0.5-1.5c0.3-0.9,0.7-1.8,1.1-2.7
			c0,0,0-0.1,0,0c-0.3,0.4-0.5,0.8-0.7,1.2c-0.2,0.5-0.4,1-0.6,1.5c-0.2,0.5-0.3,1.1-0.4,1.6c0,0.3-0.1,0.5-0.1,0.8
			C145.3,62.8,145.3,63,145.3,63.2C145.3,63.2,145.3,63.2,145.3,63.2z"/>
		<path class="st3" d="M152,69.3c0.2-0.5,0.4-0.9,0.6-1.4l0.7-1.6c0.5-1.1,0.9-2.2,1.2-3.3c0-0.1,0-0.1-0.1,0
			c-0.2,0.5-0.4,1.1-0.7,1.6c-0.2,0.5-0.4,1.1-0.7,1.6l-0.7,1.6C152.4,68.4,152.1,68.8,152,69.3C152,69.3,152,69.3,152,69.3z"/>
		<path class="st3" d="M145.1,69c0.2-1.9,0.5-3.8,0.6-5.8c0-0.1-0.1,0-0.1,0.1c-0.2,0.9-0.3,1.9-0.4,2.8
			C145.1,67.2,145,68.1,145.1,69C145,69.1,145.1,69.1,145.1,69z"/>
		<path class="st3" d="M144.6,79.4c0.1-0.8,0.2-1.6,0.2-2.5c0.1-0.8,0.1-1.6,0.1-2.4c0-0.5,0-0.9,0-1.4c-0.1,0.8-0.2,1.5-0.2,2.2
			c0,0.5,0,1.1,0,1.7C144.7,77.7,144.6,78.5,144.6,79.4C144.5,79.4,144.6,79.4,144.6,79.4z"/>
		<path class="st3" d="M143.2,88.8c0.3-1.6,0.6-3.2,0.8-4.8c0.1-0.8,0.2-1.6,0.3-2.4c0.1-0.7,0.1-1.5,0.1-2.2c0-0.1,0,0-0.1,0.1
			C144,82.5,143.6,85.7,143.2,88.8C143.2,88.8,143.1,88.8,143.2,88.8z"/>
		<path class="st3" d="M145.9,84.3c-0.2,0.5-0.3,1-0.5,1.6l-0.3,1c-0.2,0.6-0.3,1.2-0.5,1.8l0.2-0.4c0.3-0.7,0.5-1.4,0.8-2.1
			c0.2-0.7,0.5-1.4,0.7-2.1c0.1-0.5,0.3-1,0.4-1.5C146.4,83.1,146.1,83.7,145.9,84.3z"/>
		<path class="st3" d="M146.8,83.2c0.1-0.4,0.3-0.7,0.5-1.1c0.2-0.4,0.4-0.8,0.5-1.3l1-2.7c0.3-0.9,0.7-1.8,1-2.7
			c0.3-0.9,0.6-1.8,0.8-2.7c0,0,0,0,0,0c-0.3,0.9-0.7,1.7-1,2.6c-0.3,0.9-0.6,1.8-1,2.7c-0.3,0.9-0.7,1.8-1,2.6l-0.5,1.3
			C147,82.4,146.9,82.8,146.8,83.2C146.8,83.2,146.8,83.2,146.8,83.2z"/>
		<path class="st3" d="M149.4,77c0.1-0.2,0.2-0.4,0.3-0.6l0.3-0.6c0.2-0.4,0.4-0.9,0.6-1.3c0.4-0.9,0.8-1.8,1.2-2.7
			c0.8-1.8,1.5-3.6,2.2-5.4c0-0.1,0-0.1,0,0c-0.8,1.8-1.6,3.6-2.3,5.4l-1.2,2.8l-0.6,1.4C149.7,76.3,149.5,76.6,149.4,77
			C149.4,77,149.4,77,149.4,77z"/>
		<path class="st3" d="M142.4,93.1c0.1-0.4,0.1-0.8,0.1-1.2c0-0.5,0.1-0.9,0.1-1.4l0.3-2.8c0.1-0.9,0.2-1.9,0.4-2.8
			c0.1-0.9,0.3-1.9,0.5-2.8c0,0,0,0,0,0c-0.1,0.9-0.2,1.9-0.3,2.8s-0.3,1.9-0.4,2.9c-0.1,1-0.2,1.8-0.4,2.8l-0.2,1.3
			C142.5,92.3,142.5,92.7,142.4,93.1C142.4,93.1,142.4,93.1,142.4,93.1z"/>
		<path class="st3" d="M144,79.7c0-0.2,0-0.4,0-0.7c0-0.2,0-0.4,0-0.6c0-0.5,0-0.9,0-1.4c0.1-1,0.1-2,0.2-3c0.1-1.9,0.2-3.8,0.5-5.8
			c0-0.1,0.1,0,0,0c-0.1,1.9-0.2,3.9-0.4,5.9l-0.2,3l-0.1,1.5C144.1,79,144.1,79.3,144,79.7C144,79.7,144,79.7,144,79.7z"/>
		<path class="st3" d="M149.4,54.4c-0.8,0.5-1.5,1.1-2.1,1.8c-0.7,0.9-1.3,2-1.7,3.1c-0.4,1.2-0.7,2.5-0.8,3.8
			c-0.2,1.3-0.2,2.7-0.4,4c0,0,0,0,0,0c0.2-1,0.3-2.1,0.4-3.1c0.1-1.3,0.4-2.6,0.8-3.9C146.2,57.9,147.5,55.9,149.4,54.4
			C149.3,54.5,149.4,54.4,149.4,54.4z"/>
		<path class="st3" d="M156.3,58.7c-0.1-1.4-0.7-2.7-1.7-3.7c-0.4-0.3-0.9-0.6-1.4-0.8c-0.6-0.2-1.2-0.2-1.7,0c0,0-0.1,0,0,0
			c0.6-0.1,1.2,0,1.7,0.2c0.6,0.2,1.1,0.5,1.5,0.9c0.9,1.1,1.5,2.4,1.6,3.8c0.1,1.6-0.1,3.2-0.6,4.7c-0.4,1.6-1,3.3-1.6,4.8
			c0,0,0,0,0,0c0.7-1.7,1.3-3.5,1.8-5.3C156.3,61.9,156.4,60.3,156.3,58.7z"/>
		<path class="st4" d="M152.4,65.4l-0.2,0.7c-0.1,0.6-0.4,1.2-0.5,1.7c0.2-0.4,0.4-0.7,0.6-1c0.8-2,1.5-4,1.9-6.1
			c0.2-1,0.2-2.1-0.1-3.1c-0.1-0.4-0.4-0.7-0.6-1c-0.3-0.3-0.6-0.5-1-0.6c-1.3-0.5-2.9,0.1-4.1,1.4c-0.7,0.8-1.2,1.7-1.5,2.7
			c-0.2,0.5-0.4,1.1-0.5,1.7c-0.2,0.6-0.3,1.2-0.3,1.8c0,0.1,0.1,0,0.1,0c0.2-0.5,0.4-1,0.6-1.5c0.2-0.5,0.4-0.8,0.6-1.2
			c-0.1,0.3-0.3,0.6-0.4,0.8c-0.2,0.5-0.3,1-0.5,1.5c-0.3,1-0.5,2-0.6,3c0,0.1,0.1,0,0.2,0c0.2-0.4,0.3-0.9,0.4-1.3
			c0.2-0.4,0.4-0.9,0.6-1.4c-0.2,0.5-0.4,1.1-0.5,1.6c-0.2,0.8-0.3,1.6-0.4,2.3s-0.2,1.6-0.3,2.4c-0.1,0.5-0.1,1-0.1,1.5
			c0,0.1,0.1,0,0.1-0.1c0.2-0.4,0.3-0.9,0.4-1.4c0.2-0.8,0.5-1.6,0.9-2.3l0.1-0.2l-0.1,0.3c-0.2,1.1-0.3,2.2-0.4,3.3
			c-0.2,1.3-0.3,2.5-0.4,3.8c-0.1,0.6-0.1,1.2-0.1,1.8c-0.1,0.4-0.1,0.7,0,1.1c0,0.1,0.1,0,0.2-0.1c0.1-0.3,0.2-0.5,0.3-0.8
			c0.1-0.4,0.3-0.9,0.4-1.3c0.3-1,0.7-1.9,1-2.9c0.1-0.4,0.2-0.8,0.3-1.2l-0.2,1c-0.1,0.5-0.2,1-0.3,1.5c0,0,0,0.1,0.1,0
			c0.2-0.2,0.3-0.6,0.4-0.9c0.2-0.5,0.3-1,0.5-1.5c-0.2,0.9-0.4,1.8-0.6,2.7l0.5-1c0.2-0.5,0.3-1,0.5-1.5c0.2-0.5,0.3-0.9,0.5-1.3
			l-0.3,1.1c-0.1,0.5-0.3,0.9-0.3,1.4c0.4-0.9,0.8-1.8,1.1-2.7c0.3-0.7,0.6-1.4,0.9-2.1c0.4-0.9,0.6-1.7,0.9-2.6
			C152.4,65.5,152.4,65.4,152.4,65.4z"/>
		<g>
			<path class="st5" d="M153.9,60.5c0.3-1.1,0.1-2.2-0.5-3.1c-0.1-0.2-0.3-0.4-0.5-0.5c0,0,0.1,0,0.1,0c0,0,0,0,0,0
				c-0.2-0.1-0.4-0.3-0.6-0.3c-0.3-0.1-0.7-0.1-1-0.1c-0.2,0-0.5,0-0.7,0.1c-0.2,0-0.4,0.1-0.6,0.2c-0.8,0.6-1.6,1.3-2.1,2.2
				c-0.2,0.4-0.3,0.8-0.4,1.2c0.4-0.6,0.9-1.2,1.5-1.6c-0.4,0.4-0.7,0.9-1,1.4l-0.1,0.1c-0.4,0.8-0.6,1.7-0.7,2.7
				c0.2-0.5,0.5-1.1,0.8-1.6c0.4-0.7,0.9-1.3,1.4-1.8c-0.1,0.2-0.2,0.3-0.3,0.5c-0.2,0.3-0.3,0.6-0.5,0.9c-0.4,0.8-0.6,1.6-0.8,2.4
				l0,0.1c-0.2,1.3-0.3,2.7-0.3,4c0,0,0,0,0,0c0.2-0.5,0.3-1,0.5-1.6c0.2-0.5,0.4-0.9,0.6-1.4c0-0.1,0.1-0.3,0.1-0.3
				c-0.1,0.3-0.2,0.6-0.3,0.8c-0.2,0.6-0.3,1.1-0.4,1.7c-0.2,1-0.3,2.1-0.4,3.2c0,0.3-0.2,1.6,0,1.7c0,0,0,0,0.1,0c0,0,0,0,0,0
				c0.3-0.3,0.5-0.7,0.6-1.1c0.4-0.9,0.8-1.7,1.2-2.5c0.3-0.5,0.5-1.1,0.7-1.6l0,0.1c-0.1,0.4-0.1,0.8-0.2,1.1
				c-0.1,0.4-0.2,0.8-0.2,1.2c0,0,0,0,0,0.1c0.2-0.2,0.3-0.4,0.4-0.7c0.2-0.3,0.3-0.7,0.4-1c0.3-0.8,0.7-1.6,1-2.4
				c0.2-0.7,0.4-1.3,0.6-2c0,0.6,0,1.2-0.1,1.8l0.4-0.6l0.4-0.9C153.5,62.1,153.7,61.3,153.9,60.5z"/>
		</g>
		<g>
			<path class="st6" d="M153.5,58.1c-0.1-0.3-0.3-0.5-0.5-0.8c-0.2-0.2-0.5-0.4-0.8-0.5l-0.3-0.1l-0.3,0c-0.4,0-0.7,0-1.1,0.2
				l-0.4,0.2c-0.2,0.1-0.4,0.3-0.6,0.4c0.3-0.2,0.6-0.4,1-0.4c0.3-0.1,0.7-0.1,1.1,0c0.7,0.1,1.2,0.6,1.6,1.1
				c0.3,0.4,0.4,0.8,0.5,1.2c0,0,0,0,0,0C153.7,59,153.6,58.6,153.5,58.1C153.6,58.2,153.5,58.1,153.5,58.1z"/>
		</g>
		<path class="st7" d="M158.1,51.5l-1.9-0.5c-1.7,1.7-2.9,3.9-3.5,6.2c1.6,1,3.5,1.5,5.3,1.4C158.8,56.2,158.8,53.8,158.1,51.5z"/>
		
			<linearGradient id="SVGID_00000001652979774756120640000015718672944113385611_" gradientUnits="userSpaceOnUse" x1="156.6779" y1="91.4819" x2="155.1134" y2="79.8173" gradientTransform="matrix(1 0 0 -1 0 144.3678)">
			<stop  offset="0.46" style="stop-color:#E5E0DF"/>
			<stop  offset="1" style="stop-color:#8CA99C"/>
		</linearGradient>
		<path style="fill:url(#SVGID_00000001652979774756120640000015718672944113385611_);" d="M158.5,53.5c-0.1-0.7-0.2-1.4-0.4-2.1
			l-1.9-0.5c-0.5,0.5-1,1.1-1.4,1.7C156,53.1,157.2,53.5,158.5,53.5z"/>
		<path class="st9" d="M152.9,56.4l-0.1,0.3c0.7,0.4,1.6,0.8,2.4,1c1,0.2,2,0.4,3,0.4l0.1-0.3C156.4,57.8,154.6,57.3,152.9,56.4z"/>
		<path class="st9" d="M153.3,55.4l-0.1,0.3c0.7,0.4,1.5,0.7,2.3,0.9c1,0.2,1.9,0.4,2.9,0.4c0-0.1,0-0.2,0-0.3
			C156.7,56.7,154.9,56.3,153.3,55.4z"/>
		<path class="st9" d="M158.6,54.9l0-0.3c-1.5,0-3-0.4-4.4-1.1l-0.2,0.3c0.6,0.3,1.3,0.6,2,0.8C156.9,54.8,157.7,54.9,158.6,54.9z"
			/>
		<path class="st9" d="M153.7,54.4l-0.1,0.3c0.7,0.4,1.4,0.7,2.2,0.9c0.9,0.2,1.8,0.4,2.8,0.4l0-0.3
			C156.9,55.7,155.2,55.2,153.7,54.4z"/>
		<path class="st9" d="M158.6,53.9c0-0.1,0-0.2,0-0.3c-1.3-0.1-2.6-0.4-3.7-0.9l-0.2,0.3c0.6,0.3,1.1,0.5,1.7,0.6
			C157.1,53.7,157.8,53.8,158.6,53.9z"/>
		<g class="st10">
			<path class="st11" d="M158.1,51.5l-1.9-0.5c-1.7,1.7-2.9,3.9-3.5,6.2c0.1,0.1,0.1,0.1,0.2,0.1c0.3-0.9,0.6-1.9,1.1-2.7
				c0.3-0.6,0.9-1.9,1.8-1.6c0.9,0.3-0.3,4.4-0.5,5.3c0.9,0.3,1.9,0.3,2.8,0.3C158.7,56.2,158.8,53.8,158.1,51.5z"/>
		</g>
		<g class="st10">
			<path class="st11" d="M158.1,51.5l-1-0.3c0.4,2.5,0.3,5-0.3,7.4c0.4,0,0.8,0,1.2,0C158.8,56.2,158.8,53.8,158.1,51.5z"/>
		</g>
		<path class="st7" d="M151.5,49.7l-1.9-0.5c-1.7,1.7-2.9,3.9-3.5,6.2c0.8,0.5,1.7,0.9,2.6,1.1c0.9,0.3,1.9,0.4,2.8,0.3
			C152.1,54.5,152.1,52,151.5,49.7z"/>
		
			<linearGradient id="SVGID_00000080894594844514441890000006279108282684097176_" gradientUnits="userSpaceOnUse" x1="150.0204" y1="93.2039" x2="148.4488" y2="81.5412" gradientTransform="matrix(1 0 0 -1 0 144.3678)">
			<stop  offset="0.46" style="stop-color:#E5E0DF"/>
			<stop  offset="1" style="stop-color:#8CA99C"/>
		</linearGradient>
		<path style="fill:url(#SVGID_00000080894594844514441890000006279108282684097176_);" d="M151.9,51.8c-0.1-0.7-0.2-1.4-0.4-2.1
			l-1.9-0.5c-0.5,0.5-1,1.1-1.4,1.7C149.3,51.4,150.6,51.7,151.9,51.8z"/>
		<path class="st9" d="M146.3,54.7l-0.1,0.3c0.7,0.4,1.6,0.8,2.4,1c1,0.3,2,0.4,3,0.4l0.1-0.3C149.8,56.1,147.9,55.6,146.3,54.7z"/>
		<path class="st9" d="M146.6,53.7l-0.1,0.3c0.7,0.4,1.5,0.7,2.3,0.9c1,0.2,1.9,0.4,2.9,0.4c0-0.1,0-0.2,0-0.3
			C150,55,148.2,54.6,146.6,53.7z"/>
		<path class="st9" d="M151.9,53.2l0-0.3c-1.5,0-3-0.4-4.4-1.1l-0.2,0.3c0.6,0.3,1.3,0.6,2,0.8C150.2,53,151.1,53.2,151.9,53.2z"/>
		<path class="st9" d="M147,52.7l-0.1,0.3c0.7,0.4,1.4,0.7,2.2,0.9c0.9,0.2,1.9,0.4,2.8,0.4l0-0.3C150.2,54,148.6,53.5,147,52.7z"/>
		<path class="st9" d="M151.9,52.1c0-0.1,0-0.2,0-0.3c-1.3-0.1-2.6-0.4-3.8-0.9l-0.2,0.3c0.6,0.3,1.2,0.5,1.8,0.6
			C150.4,52,151.2,52.1,151.9,52.1z"/>
		<g class="st10">
			<path class="st11" d="M151.5,49.7l-1.9-0.5c-1.7,1.7-2.9,3.9-3.5,6.2c0.1,0,0.1,0.1,0.2,0.1c0.3-0.9,0.6-1.8,1.1-2.7
				c0.3-0.6,0.9-1.9,1.8-1.6c0.9,0.3-0.3,4.4-0.5,5.3c0.9,0.3,1.9,0.4,2.8,0.3C152.1,54.5,152.1,52.1,151.5,49.7z"/>
		</g>
		<g class="st10">
			<path class="st11" d="M151.5,49.7l-1-0.3c0.4,2.5,0.3,5-0.3,7.4c0.4,0,0.8,0,1.3,0C152.1,54.5,152.1,52.1,151.5,49.7z"/>
		</g>
		<path class="st13" d="M147.9,38.5c-1,0.1-1.9,0.4-2.7,1c-0.8,0.6-1.4,1.4-1.7,2.3c-1.1,3.2,1.1,14.3,1.8,13s2.8-8.1,2.8-8.1
			L147.9,38.5z"/>
		<g>
			<path class="st13" d="M146.9,39.4C146.9,39.4,146.9,39.4,146.9,39.4c0.1,0,0.1,0,0.1,0c0,0,0,0,0,0.1c0,0,0,0,0,0.1
				c-1.6,2.4-1.9,5.5-2.1,8.3c-0.2,2.4-0.1,4.8,0.4,7.1c0,0,0.1,0,0.1-0.1c0.7-1.2,2.8-8.1,2.8-8.1l-0.3-8.3c-1,0.1-1.9,0.4-2.7,1
				s-1.4,1.4-1.7,2.3c-0.1,0.2-0.1,0.4-0.1,0.6c0.3-0.7,0.8-1.4,1.4-1.9C145.4,40,146.1,39.6,146.9,39.4z"/>
		</g>
		<g>
			<path class="st0" d="M144.3,48.8c-0.1-1.1-0.1-2.2-0.3-3.3c-0.2-0.8-0.4-1.7-0.6-2.5c-0.1,3.3,0.3,6.6,1.1,9.7
				C144.5,51.5,144.4,50.1,144.3,48.8z"/>
		</g>
		<path class="st14" d="M164.7,42.8c0.8,0.5,1.4,1.3,1.8,2.2c0.4,0.9,0.5,1.9,0.3,2.8c-0.6,3.3-7.9,11.9-7.9,10.5
			c0-1.4,1.5-8.4,1.5-8.4L164.7,42.8z"/>
		<g>
			<path class="st13" d="M159.1,58.6l0.1-0.2c0.3-0.7,0.6-1.4,0.8-2.1c0.5-1.3,0.9-2.5,1.5-3.8c1-2.5,2.3-4.9,3.9-7.2
				c0,0,0.1,0,0.1,0c0,0,0.1,0,0.1,0c0.8,0.9,1.2,2,1.1,3.2c0.1-0.2,0.1-0.4,0.2-0.6c0.2-1,0.1-1.9-0.3-2.8c-0.4-0.9-1-1.7-1.8-2.2
				l-4.3,7.1c0,0-1.5,7-1.5,8.4C158.9,58.5,159,58.6,159.1,58.6z"/>
		</g>
		<path class="st15" d="M168.2,32.5c0.6-2.1,0.9-4.3,1.1-6.5c0.5-3.9-3.4-15.4-3.8-16.1c-0.1-0.2-0.2-0.4-0.4-0.5
			c-0.2-0.1-0.4-0.2-0.6-0.3c-0.2-0.1-0.4-0.1-0.7,0c-0.2,0-0.4,0.1-0.6,0.2c-0.7,0.5-9.7,8.6-11.2,12.2c-0.9,2-1.7,4.1-2.3,6.2
			c-1.4,4.8-3.6,17.6-2.1,22.4c1.7,0.9,3.6,1.6,5.5,2c1.9,0.6,3.8,0.9,5.8,1C162.7,49.6,167.1,37.4,168.2,32.5z"/>
		<path class="st14" d="M157.4,40.7c-0.1-0.2-0.3-0.3-0.5-0.4l-1-0.3c-0.2,0-0.4,0-0.5,0c-0.5,0.2-1.5,0.9-2.2,3.9
			c-0.7,3.3-1.6,13.2-1.2,12.8c0.2,0.5,4.4-8.5,5.3-11.7C158,42.3,157.7,41.2,157.4,40.7z"/>
		<path class="st13" d="M156.1,41c-0.1-0.1-0.1-0.2-0.2-0.3l-0.5-0.1c-0.1,0-0.2,0-0.3,0c-0.3,0.2-0.8,0.8-1.3,2.9
			c-0.5,2.3-1.5,9.4-1.3,9.1c0.1,0.3,2.7-6.2,3.3-8.5C156.3,42.1,156.2,41.3,156.1,41z"/>
		<path class="st0" d="M153.7,46.2c0.4-1.7,0.6-3.5,1.2-5.2c-0.4,0.7-0.7,1.5-0.9,2.4c-0.3,1.1-0.6,3.4-0.9,5.3L153.7,46.2z"/>
		
			<linearGradient id="SVGID_00000039117117040502901010000008895396841725639043_" gradientUnits="userSpaceOnUse" x1="149.2419" y1="130.9496" x2="177.84" y2="123.4942" gradientTransform="matrix(1 0 0 -1 0 144.3678)">
			<stop  offset="0.46" style="stop-color:#E5E0DF"/>
			<stop  offset="1" style="stop-color:#8CA99C"/>
		</linearGradient>
		<path style="fill:url(#SVGID_00000039117117040502901010000008895396841725639043_);" d="M164.5,9.1c-0.2-0.1-0.4-0.1-0.7,0
			c-0.2,0-0.4,0.1-0.6,0.2c-0.7,0.4-9.2,8.2-11,11.9c2.6,1.5,5.3,2.7,8.2,3.4c2.9,0.8,5.9,1.1,8.8,1c0.2-4.2-3.4-15.1-3.8-15.8
			c-0.1-0.2-0.2-0.4-0.4-0.5C164.9,9.2,164.7,9.1,164.5,9.1z"/>
		<path class="st17" d="M164.5,9.1c-0.2-0.1-0.4-0.1-0.7,0c-0.2,0-0.4,0.1-0.6,0.2c-0.7,0.4-9.2,8.2-11,11.9
			c2.6,1.5,5.3,2.7,8.2,3.4c2.9,0.8,5.9,1.1,8.8,1c0.2-4.2-3.4-15.1-3.8-15.8c-0.1-0.2-0.2-0.4-0.4-0.5
			C164.9,9.2,164.7,9.1,164.5,9.1z"/>
		<path class="st0" d="M153.1,22.4c0,0.1,0,0.1-0.1,0.2c0,0-0.1,0.1-0.1,0.1c0,0-0.1,0.1-0.2,0.1c-0.1,0-0.1,0-0.2,0
			c-0.1,0-0.1,0-0.1-0.1c0,0-0.1-0.1-0.1-0.1c0,0,0-0.1,0-0.2c0-0.1,0-0.1,0-0.2c0-0.1,0-0.1,0.1-0.2c0,0,0.1-0.1,0.1-0.1
			c0,0,0.1-0.1,0.2-0.1c0.1,0,0.1,0,0.2,0c0.1,0,0.1,0,0.1,0.1c0,0,0.1,0.1,0.1,0.1c0,0,0,0.1,0,0.2
			C153.1,22.3,153.1,22.4,153.1,22.4z"/>
		<path class="st0" d="M160.6,25.6c0,0.1-0.1,0.2-0.2,0.2c-0.1,0.1-0.2,0.1-0.3,0c-0.1,0-0.2-0.1-0.2-0.2c-0.1-0.1-0.1-0.2,0-0.3
			c0-0.1,0.1-0.2,0.2-0.2c0.1-0.1,0.2-0.1,0.3,0c0.1,0,0.2,0.1,0.2,0.2C160.6,25.4,160.6,25.5,160.6,25.6z"/>
		<path class="st0" d="M168.7,26.4c0,0,0,0.1-0.1,0.1c0,0-0.1,0.1-0.1,0.1c0,0-0.1,0-0.1,0c-0.1,0-0.1,0-0.2,0
			c-0.1,0-0.2-0.1-0.2-0.2c0-0.1-0.1-0.2,0-0.3c0-0.1,0.1-0.2,0.2-0.2c0.1-0.1,0.2-0.1,0.3-0.1c0.1,0,0.2,0.1,0.2,0.2
			C168.7,26.2,168.8,26.3,168.7,26.4z"/>
		<path class="st0" d="M164.6,26.4c0,0,0,0.1-0.1,0.1c0,0-0.1,0.1-0.1,0.1c0,0-0.1,0-0.1,0.1c-0.1,0-0.1,0-0.2,0c0,0-0.1,0-0.1-0.1
			c0,0-0.1-0.1-0.1-0.1c0,0,0-0.1-0.1-0.1c0-0.1,0-0.1,0-0.2c0-0.1,0.1-0.2,0.2-0.2c0.1-0.1,0.2-0.1,0.3,0c0.1,0,0.2,0.1,0.2,0.2
			C164.6,26.2,164.6,26.3,164.6,26.4z"/>
		<path class="st0" d="M156.7,24.3c0,0.1-0.1,0.1-0.1,0.2c-0.1,0.1-0.1,0.1-0.2,0.1c-0.1,0-0.2,0-0.2,0c-0.1,0-0.1-0.1-0.2-0.2
			c0-0.1-0.1-0.1-0.1-0.2c0-0.1,0-0.2,0.1-0.2c0-0.1,0.1-0.1,0.2-0.1c0.1,0,0.2,0,0.2,0c0,0,0.1,0,0.1,0.1c0,0,0.1,0.1,0.1,0.1
			c0,0,0,0.1,0,0.1S156.8,24.3,156.7,24.3z"/>
		<path class="st18" d="M162.6,33.6c-0.2,0.8-0.6,1.5-1.2,2c-0.6,0.5-1.3,0.9-2.1,1c-0.8,0.1-1.6,0-2.3-0.4
			c-0.7-0.3-1.3-0.9-1.7-1.6c-0.4-0.7-0.6-1.5-0.5-2.3c0-0.8,0.3-1.5,0.8-2.2c0.5-0.6,1.1-1.1,1.9-1.4c0.7-0.3,1.6-0.3,2.3-0.1
			c0.5,0.1,1,0.4,1.4,0.7c0.4,0.3,0.8,0.7,1,1.2c0.3,0.5,0.4,1,0.5,1.5C162.8,32.5,162.7,33.1,162.6,33.6z"/>
		<g class="st19">
			<path class="st20" d="M162,33.5c-0.2,0.6-0.5,1.2-1,1.7c-0.5,0.4-1.1,0.7-1.8,0.8c-0.7,0.1-1.3,0-1.9-0.3
				c-0.6-0.3-1.1-0.8-1.4-1.3c-0.3-0.6-0.5-1.2-0.5-1.9c0-0.7,0.3-1.3,0.7-1.8c0.4-0.5,1-0.9,1.6-1.2c0.6-0.2,1.3-0.2,2-0.1
				c0.4,0.1,0.8,0.3,1.2,0.6c0.4,0.3,0.7,0.6,0.9,1c0.2,0.4,0.4,0.8,0.4,1.2C162.1,32.6,162.1,33.1,162,33.5z"/>
		</g>
		
			<radialGradient id="SVGID_00000005989438632477868470000014972526644627776419_" cx="-164.7879" cy="454.6761" r="1.8439" gradientTransform="matrix(2.696 0.6883 0.6886 -2.6972 268.7424 1359.9382)" gradientUnits="userSpaceOnUse">
			<stop  offset="0.15" style="stop-color:#21687E"/>
			<stop  offset="0.49" style="stop-color:#023F5F"/>
			<stop  offset="0.98" style="stop-color:#000000"/>
		</radialGradient>
		<path style="fill:url(#SVGID_00000005989438632477868470000014972526644627776419_);" d="M161.7,33.3c-0.2,0.6-0.5,1.1-0.9,1.5
			c-0.4,0.4-1,0.7-1.6,0.7s-1.2,0-1.7-0.3c-0.5-0.3-1-0.7-1.3-1.2c-0.3-0.5-0.4-1.1-0.4-1.7c0-0.6,0.2-1.2,0.6-1.7
			c0.4-0.5,0.9-0.8,1.4-1c0.6-0.2,1.2-0.2,1.8-0.1c0.4,0.1,0.8,0.3,1.1,0.5c0.3,0.2,0.6,0.5,0.8,0.9c0.2,0.3,0.3,0.7,0.4,1.1
			C161.8,32.6,161.8,33,161.7,33.3z"/>
		<g>
			
				<radialGradient id="SVGID_00000047761444664948917880000001342673017118415530_" cx="-155.153" cy="448.2585" r="1.8439" gradientTransform="matrix(2.5564 0.6527 0.653 -2.5575 240.0745 1267.4869)" gradientUnits="userSpaceOnUse">
				<stop  offset="0.29" style="stop-color:#FFFFFF"/>
				<stop  offset="0.69" style="stop-color:#6C6C6C"/>
				<stop  offset="1" style="stop-color:#000000"/>
			</radialGradient>
			<path style="fill:url(#SVGID_00000047761444664948917880000001342673017118415530_);" d="M156.5,32.5l-0.5-0.2
				c0,0.4,0,0.8,0.1,1.1c0.1,0.4,0.3,0.7,0.5,1C156.4,33.8,156.4,33.1,156.5,32.5L156.5,32.5z"/>
			
				<radialGradient id="SVGID_00000134219608364043539610000002267932784648136850_" cx="-155.1529" cy="448.2585" r="1.8439" gradientTransform="matrix(2.5564 0.6527 0.653 -2.5575 240.0746 1267.4869)" gradientUnits="userSpaceOnUse">
				<stop  offset="0.29" style="stop-color:#FFFFFF"/>
				<stop  offset="0.69" style="stop-color:#6C6C6C"/>
				<stop  offset="1" style="stop-color:#000000"/>
			</radialGradient>
			<path style="fill:url(#SVGID_00000134219608364043539610000002267932784648136850_);" d="M159.5,29.9c-0.7-0.2-1.4-0.1-2,0.2
				c-0.6,0.3-1.1,0.9-1.3,1.5c0.2,0.1,0.4,0.2,0.5,0.2c0.2-0.4,0.5-0.7,0.9-1c0.4-0.3,0.8-0.4,1.2-0.5c0.4-0.1,0.9,0,1.3,0.2
				c0.4,0.2,0.8,0.4,1.1,0.7c-0.2-0.3-0.4-0.7-0.7-0.9C160.2,30.2,159.8,30,159.5,29.9z"/>
		</g>
		<g>
			<path class="st0" d="M166.4,48.4c0,0-2.3,5.5-6.4,9.2C162.3,54.7,164.5,51.6,166.4,48.4z"/>
		</g>
		<g class="st19">
			<path class="st20" d="M156,23.7c-0.2-0.1-0.3-0.1-0.5-0.2c-0.5-0.2-1-0.5-1.6-0.8c-0.9,1.9-1.6,4-2.1,6.1
				c-1.7,6.8-2,13.8-2.6,20.8c0.4,0.2,0.9,0.4,1.5,0.6c1-6.3,1.8-12.7,3.2-19C154.4,28.6,155.1,26.1,156,23.7z"/>
		</g>
		<g class="st24">
			<path class="st25" d="M168.2,32.5c0.6-2.1,0.9-4.3,1.1-6.5c0.5-3.9-3.4-15.4-3.8-16.1c-0.1-0.2-0.2-0.4-0.4-0.5
				c-0.2-0.1-0.4-0.2-0.6-0.3l0,0c0.3,1.9,0.4,3.7,0.5,5.6c0.3,13.1-3.2,26.1-8,38.2c0.7,0.1,1.4,0.2,2.1,0.2
				C162.7,49.6,167.1,37.4,168.2,32.5z"/>
		</g>
		<path class="st26" d="M155.6,22.5c0.2,0.1,0.5,0.2,0.7,0.3c0.3-0.8,0.7-1.7,1.1-2.5c1.3-2.8,2.7-5.4,4.1-8.1
			c-2,2.1-3.9,4.5-5.5,6.9c-0.6,0.9-1.1,1.8-1.6,2.8C154.8,22.1,155.2,22.3,155.6,22.5z"/>
	</g>
</g>
</svg>
